<?xml version="1.0" encoding="utf-8"?>
<!-- Generator: Adobe Illustrator 19.0.0, SVG Export Plug-In . SVG Version: 6.00 Build 0)  -->
<svg version="1.1" id="Layer_1" xmlns="http://www.w3.org/2000/svg" xmlns:xlink="http://www.w3.org/1999/xlink" x="0px" y="0px"
	 viewBox="2583.1 340.6 433.7 110.9" style="enable-background:new 2583.1 340.6 433.7 110.9;" xml:space="preserve">
<style type="text/css">
	.st0{fill:#6F6F6F;}
	.st1{fill:#FFCA05;}
</style>
<g>
	<g>
		<path class="st0" d="M2662.4,340.6h-20.2V367c-0.2-1.1-0.2-2.1-0.6-3.2c-1-4.6-2.9-8.7-5.1-12.2c-2.3-3.6-5.3-6.3-8.9-8.2
			c-3.6-1.9-8.6-2.9-14.5-2.9h-30v76.6h30c3.6,0,7.6-0.6,12.2-1.9c3.2-1,6.3-3,9.1-6.1c2.9-3.2,4.9-6.8,6.7-11.4
			c0.6-1.7,1-3.6,1.3-5.7v25.1h20.2v-31h22.1v31h20.3v-76.6h-20.3v27h-22.2V340.6z M2603.5,357.9h4.9c5.3,0,8.9,1.5,11.2,4.6
			c2.1,2.9,3.2,8.4,3.4,16.5c0,0,0,0.2,0,0.4c0,5.9-0.6,10.5-1.5,13.3c-1,2.9-2.3,4.8-4.2,5.9c-1.9,1.1-4.8,1.7-8.9,1.7h-4.9V357.9
			L2603.5,357.9z"/>
	</g>
	<g>
		<path d="M2889.8,382c-3.2,3.8-4.8,8.4-4.8,13.7c0,5.9,1.5,10.6,4.8,14.5c3,3.6,6.8,5.3,11,5.3c4,0,7.4-1.7,10.5-4.8
			c2.5-2.9,4.2-6.3,5.1-10.6l-1.1-0.6c-1.3,3.2-2.9,5.5-4.4,6.8c-2.1,1.9-4.6,2.9-7.2,2.9c-3.6,0-6.7-1.7-8.7-5.1
			c-2.3-3.4-3.4-7.4-3.4-11.6c0-4.4,1.1-7.8,3.4-10.6c1.7-1.9,3.8-2.9,6.5-2.9c1.7,0,3,0.4,4,1c1,1,1.5,2.1,1.7,3.8
			c0,1.5,0.4,2.7,0.8,3.2c1,1,2.1,1.5,3.6,1.5c1.1,0,2.1-0.4,2.9-1c0.6-0.6,1-1.3,1-2.5c0-2.1-1.1-4.2-3.4-6.1
			c-2.3-1.9-5.3-2.9-8.9-2.9C2897.4,376.1,2893.1,378,2889.8,382z"/>
		<path d="M2920.5,385.8c-1.7,3.4-2.5,6.8-2.5,10.3c0,4.8,1.3,8.9,4.2,12.5c3.2,4.6,7.8,6.8,13.5,6.8c3.4,0,6.5-1,9.3-2.9
			c2.9-1.7,4.9-4.2,6.7-7.8c1.7-3.2,2.5-6.7,2.5-9.9c0-4.8-1.5-8.9-4.4-12.5c-3.4-4.4-7.8-6.5-13.5-6.5c-3,0-6.1,0.8-8.7,2.5
			C2924.3,380.1,2922,382.6,2920.5,385.8z M2926.7,384.5c1-2.3,1.9-3.8,3.4-4.6c1.3-0.8,2.9-1.1,4.4-1.1c3,0,5.3,1.1,7.2,3.8
			c2.9,3.8,4.2,8.9,4.2,15.6c0,5.3-1,8.9-2.5,11c-1.7,2.1-3.8,3.2-6.5,3.2c-3.4,0-6.3-1.9-8.6-5.9c-2.1-4-3.2-8.6-3.2-13.9
			C2925.4,389.4,2925.8,386.6,2926.7,384.5z"/>
		<path d="M2953.7,382c1-0.4,1.9-0.8,2.7-0.8c1.3,0,2.3,0.8,2.7,2.5c0.2,1,0.4,3.8,0.4,7.8v14.3c0,3.4-0.8,5.7-1.9,6.5
			c-0.8,0.2-1.9,0.4-3.6,0.4v1.5h18.3v-1.5c-2.1,0-3.4-0.2-4-0.4c-1.3-0.8-1.9-2.9-1.9-6.5V386c1.1-1.3,2.9-2.7,5.1-4
			c1.5-0.8,3-1.1,4.4-1.1c2.1,0,3.8,1,4.9,2.7c1,1.3,1.1,3.4,1.1,6.7v16c0,2.1,0,3.6,0,4c-0.4,1-1,1.7-1.7,2.1
			c-0.8,0.4-2.1,0.6-4.2,0.6v1.5h18.8v-1.5c-1.9,0-3.2-0.2-4-0.6c-0.8-0.4-1.3-1-1.7-1.5c-0.2-0.6-0.4-2.1-0.4-4.8v-19.4v-0.4
			c3.6-3.4,6.8-5.1,9.5-5.1c2.5,0,4.2,1,5.1,2.7c0.8,1.1,1.1,3.2,1.1,6.5v16c0,2.3,0,3.6-0.2,4c-0.6,1.9-2.3,2.9-5.1,2.9h-0.8v1.5
			h18.4V413c-1.7,0-2.9-0.2-3.6-0.6c-0.8-0.4-1.1-1-1.5-1.5c-0.2-1-0.4-2.7-0.4-4.8v-16c0-3.4-0.4-5.9-1-7.4c-1-2.5-2.1-4.2-3.6-5.1
			c-1.5-1-3.2-1.3-5.3-1.3c-2.1,0-4,0.4-5.9,1.5c-1.9,1-4.2,3-7,6.5c-1.1-5.3-4.2-8-9.3-8c-1.5,0-2.9,0.2-4.2,0.8
			c-1.1,0.6-2.5,1.3-3.8,2.5c-0.8,0.6-2.5,2.1-4.9,4.8v-8h-1.7l-11.2,4.6L2953.7,382z"/>
		<path d="M2871.6,410.9c0,1.1,0.4,2.3,1.3,3.2c1,1,1.9,1.3,3.2,1.3c1.3,0,2.3-0.4,3.2-1.3c0.8-0.8,1.1-1.9,1.1-3.2
			c0-1.3-0.4-2.3-1.1-3.2c-1-1-1.9-1.3-3.2-1.3c-1.1,0-2.3,0.4-3.2,1.3S2871.6,409.6,2871.6,410.9z"/>
	</g>
	<g>
		<path class="st1" d="M2822,361.1h-1.3c-1.3,3.2-2.3,5.3-2.9,6.3c-1.3,1.9-2.9,3.8-4.8,5.5c-1.9,1.5-3.4,2.9-4.9,3.4v1.5h6.5v27.6
			c0,2.9,0.2,4.9,1,6.5c0.8,1.5,1.7,2.7,2.9,3.4c1.3,0.8,2.7,1.1,4,1.1c4.8,0,8.2-2.9,10.3-8.7h-1.7c-0.4,1.1-1.1,2.1-2.1,2.7
			c-1,0.8-1.9,1-2.9,1c-2.7,0-4-2.3-4-6.8v-26.6h9.5v-3.2h-9.5V361.1L2822,361.1z"/>
		<path class="st1" d="M2867.8,390c0-5.1-1.5-9.1-4.4-12.2c-2.9-3-6.7-4.4-11.2-4.4c-6.1,0-10.8,2.1-14.3,6.7c-3,4-4.8,9.1-4.8,15.4
			c0,6.5,1.7,11.6,5.3,15.4c3.6,3.8,7.6,5.7,12.6,5.7c4.6,0,8.2-1.7,11.4-5.1c2.9-3.2,4.8-7,5.3-11l-1.3-1
			c-2.5,6.5-6.5,9.7-11.8,9.7c-4,0-7.6-1.7-10.6-5.1c-3-3.6-4.6-8.4-4.6-14.3h28.3L2867.8,390L2867.8,390L2867.8,390L2867.8,390z
			 M2839.6,387.3c0.4-3.4,1.7-6.1,3.6-8c1.9-1.9,4-2.9,6.5-2.9c1.7,0,3.2,0.4,4.8,1.3c1.3,1,2.5,2.3,3.4,4c0.4,1,0.8,2.9,1,5.5
			L2839.6,387.3L2839.6,387.3z"/>
		<path class="st1" d="M2802.8,408.5c-0.2-1-0.4-3.4-0.2-7.2v-13.9c0-3.8-0.4-6.7-1-8c-0.8-1.9-2.1-3.2-3.8-4.2
			c-2.5-1.1-5.5-1.9-8.9-1.9c-4.8,0-8.4,1-11,3.2c-2.7,2.1-3.8,4.6-3.8,7c0,1.3,0.2,2.5,1,3c0.6,0.8,1.5,1.1,2.9,1.1
			c1.1,0,1.9-0.4,2.7-1.1c0.8-0.8,1.1-1.9,1-3l-0.2-2.7c0-1.3,0.6-2.3,1.9-3.4c1.1-1,2.7-1.5,4.6-1.5c2.5,0,4.4,0.8,5.7,2.3
			c1.3,1.3,1.9,4.2,1.9,8.4v1.9c-5.5,1.9-9.3,3.4-11.6,4.6c-4.9,2.3-8.4,4.9-9.9,7.6c-1,1.5-1.3,3.2-1.3,5.3c0,3,1,5.7,2.7,7.6
			c1.9,1.9,4.2,2.9,7,2.9c1.9,0,3.4-0.4,4.9-1.1c1.1-0.6,3.8-2.5,8-5.7c0,2.5,0.2,4.2,1.1,5.1c1,1,2.1,1.5,3.6,1.5
			c2.9,0,6.1-2.3,9.5-6.8v-2.7c-1.9,1.9-3,2.9-3.6,3.4c-0.4,0.2-0.8,0.2-1.1,0.4c-0.6,0-1-0.2-1.1-0.4
			C2803.1,410,2802.8,409.4,2802.8,408.5z M2786.4,395c1.3-0.8,4.2-2.1,8.7-3.8v15.6c-3.8,3-6.8,4.6-8.9,4.6c-1.5,0-3-0.8-4.4-2.3
			c-1.3-1.5-1.9-3-1.9-5.3c0-1.7,0.6-3.2,1.7-4.8C2782.4,397.6,2784.1,396.1,2786.4,395z"/>
		<path class="st1" d="M2717.6,349.9c-4.6,4.8-6.8,10.1-6.8,16.2c0,4.8,1.3,9.1,4.4,13.3c2.9,3.8,6.8,7,12.2,9.5
			c-5.5,1.3-9.1,2.7-11.2,3.8c-4,2.5-5.9,5.9-5.9,10.3c0,4,1.7,7.6,5.1,10.5c1.5,1.3,3.6,2.5,5.9,3.2c-1-0.2-1.9-0.4-2.9-0.4
			c-1.3,0-2.7,0.2-3.6,0.4c-0.2,0-0.4,0-0.6,0.2c-1.9,0.8-3.8,1.9-5.3,3.6c-2.7,2.9-3.8,6.3-3.8,10.3c0,5.1,1.9,9.5,5.3,12.7
			c5.5,5.3,14.8,8,28.1,8c12.4,0,21.7-2.3,28.1-6.8c5.9-4.2,8.7-10.1,9.1-17.5v-1.5c0-3.4-0.8-6.3-1.9-8.7h-0.4
			c-1.3-2.5-3.2-4.6-5.5-6.1c-2.9-2.1-5.9-3.6-9.5-4.6c-3.6-1-8-1.3-13.5-1.3h-15c-7.6,0-11.4-1.9-11.4-5.9c0-4.4,4.4-6.8,13.3-7.6
			c6.5-0.4,10.5-0.8,11.6-1c4.2-0.8,8-2.3,11.4-4.6c7-4.6,10.5-10.8,10.6-18.8c0-6.5-2.5-12.5-7.4-18.4c2.5-2.1,4.8-3.2,7-3.2
			c2.1,0,3.8,0.8,4.8,2.1l2.1,2.9c1.5,2.1,3.2,3,5.3,3c1.3,0,2.3-0.4,3-1.3c1-1,1.3-2.1,1.3-3.6c0-2.3-1.1-4.2-3.2-5.9
			c-1.9-1.1-4.2-1.9-7.2-1.9c-2.7,0-5.1,0.6-7.4,1.5c-2.3,1-4.9,2.5-7.8,4.8c-6.1-4-12-5.9-17.7-5.9c-3.8,0-7.6,1-11.2,2.5
			C2723.5,344.9,2720.4,347.2,2717.6,349.9z M2725,357.5c0.8-3,1.7-5.9,3-8c2.7-4.4,6.1-6.7,10.5-6.7c3.6,0,6.7,1.7,8.9,4.9
			c3,4.6,4.8,10.5,4.8,17.9c0,7.2-1.3,12.9-3.8,17.1c-2.3,4-5.7,6.1-10.1,6.1c-4.2,0-7.8-2.1-10.6-6.1c-2.9-4.2-4.2-9.5-4-16
			C2723.7,363.8,2724.2,360.7,2725,357.5z M2747,417.8c5.9,0.6,9.9,1.5,11.6,2.7c3.4,2.3,4.9,5.7,4.9,10.1c0,5.5-2.5,10.1-7.4,13.5
			c-4.9,3.6-11.6,5.1-19.6,5.3c-7.8,0-14.1-1.5-18.8-4.8c-4.9-3-7.4-7-7.4-12c0-3,0.8-5.5,2.5-7.6c1.5-1.9,3.6-3,6.1-2.9
			c1.5,0,2.7,0.2,3.8,1c1,0.6,2.1,1.9,3.2,3.6l1.5-0.4v-1c0-2.7-1-4.8-2.5-6.5c-1-0.8-1.9-1.3-2.9-1.7c1.1,0.4,2.3,0.6,3.6,0.8h21.3
			L2747,417.8L2747,417.8z"/>
	</g>
</g>
</svg>
