<svg xmlns="http://www.w3.org/2000/svg" version="1.1" id="Layer_2" x="0" y="0" width="1260" height="365.31" viewBox="0 0 1260 365.31"><defs></defs><path d="M345.055 354.73c0-13.4-5.73-25.21-25.08-25.21-9.94 0-17.83 2.79-22.14 5.28l3.15 10.78c3.93-2.48 10.2-4.54 16.14-4.54 9.82-.02 11.43 5.56 11.43 9.14v.85c-21.41-.04-34.93 7.37-34.93 22.47 0 9.22 6.89 17.87 18.87 17.87 7.36 0 13.53-2.94 17.21-7.65h.37s2.44 10.23 15.92 6.32c-.71-4.26-.94-8.8-.94-14.26m-15.99-6.88c0 1.09-.09 2.21-.4 3.21-1.24 4.09-5.49 7.56-10.79 7.56-4.43 0-7.94-2.51-7.94-7.83 0-8.12 8.95-10.37 19.13-10.32zM18 311.27s13.98 57.31 16.22 66.62c2.6 10.86 7.3 14.85 20.83 12.16l8.73-35.53c2.22-8.83 3.7-15.12 5.12-24.09h.25c1.01 9.06 2.43 15.29 4.25 24.12 0 0 3.55 16.13 5.37 24.6s6.91 13.81 20.16 10.9l20.81-78.77h-16.8l-7.1 34.06c-1.91 9.91-3.64 17.67-4.98 26.73h-.24c-1.21-8.97-2.76-16.42-4.7-26.07l-7.4-34.71h-17.5l-7.91 33.84c-2.24 10.29-4.34 18.58-5.67 27.35h-.24c-1.37-8.25-3.19-18.68-5.16-28.64 0 0-4.7-24.19-6.35-32.54m130.48 43.43c0-13.4-5.73-25.21-25.08-25.21-9.94 0-17.83 2.79-22.13 5.28l3.15 10.78c3.93-2.48 10.2-4.54 16.14-4.54 9.83-.02 11.43 5.56 11.43 9.14v.85c-21.41-.04-34.93 7.37-34.93 22.47 0 9.22 6.89 17.87 18.86 17.87 7.37 0 13.53-2.94 17.22-7.65h.36s2.45 10.23 15.92 6.32c-.71-4.26-.94-8.8-.94-14.26m-15.98-6.88c0 1.09-.1 2.21-.4 3.21-1.24 4.09-5.48 7.56-10.79 7.56-4.43 0-7.94-2.51-7.94-7.83 0-8.12 8.95-10.37 19.13-10.32zm40.747 4.41v-62.04h-16v78.77h16m203.05-78.77v58.11c0 8.01 1.51 13.63 4.73 17.05 2.81 3 7.45 4.94 13.02 4.94 4.73 0 9.38-.9 11.58-1.71l-.21-12.49c-1.63.4-3.51.71-6.08.71-5.45 0-7.27-3.49-7.27-10.68v-22.24h13.92V329.9h-13.92v-18.63m-57.07 19.61v59.17h16.5v-30.3c0-1.63.1-3.05.36-4.36 1.22-6.35 6.08-10.41 13.04-10.41 1.92 0 3.29.21 4.77.42v-15.5c-1.25-.25-2.1-.37-3.65-.37-6.16 0-13.15 3.98-16.1 12.5h-.46v-11.15m-166.897 0v59.17h16.08v-34.7c0-1.63.19-3.35.76-4.85 1.33-3.5 4.58-7.58 9.77-7.58 6.48 0 9.52 5.49 9.52 13.4v33.73h16.06v-35.12c0-1.55.22-3.42.67-4.8 1.32-3.97 4.82-7.21 9.65-7.21 6.58 0 9.74 5.39 9.74 14.7v32.43h16.07V355.2c0-18.38-9.33-25.66-19.87-25.66-4.67 0-8.35 1.17-11.68 3.21-2.8 1.72-5.31 4.17-7.49 7.38h-.24c-2.54-6.38-8.52-10.59-16.31-10.59-10.01 0-14.51 5.08-17.24 9.38h-.24v-8.04" transform="translate(-41.018 -644.396)scale(2.27879)" style="fill:#007dc3"></path><path d="M510.454 328.49c3.18 0 5.79-1.66 6.14-3.8l3.14-35.52c0-3.51-4.1-6.39-9.28-6.39-5.17 0-9.27 2.88-9.27 6.39l3.14 35.52c.34 2.14 2.96 3.8 6.13 3.8m-19.2 11.09c1.59-2.74 1.47-5.85-.21-7.22l-29.19-20.47c-3.03-1.76-7.59.36-10.17 4.83-2.58 4.48-2.13 9.47.9 11.22l32.31 15.04c2.03.75 4.77-.68 6.37-3.44m38.39.01c1.59 2.76 4.34 4.19 6.35 3.44l32.33-15.04c3.04-1.76 3.49-6.75.9-11.22-2.58-4.48-7.15-6.59-10.17-4.83l-29.19 20.47c-1.67 1.37-1.79 4.48-.21 7.22m-19.21 33.26c3.18 0 5.79 1.64 6.14 3.77l3.14 35.51c0 3.52-4.1 6.4-9.28 6.4-5.17 0-9.27-2.88-9.27-6.4l3.14-35.51c.34-2.13 2.96-3.77 6.13-3.77m19.2-11.09c1.59-2.76 4.34-4.19 6.35-3.44l32.33 15.03c3.04 1.77 3.49 6.76.9 11.24-2.58 4.47-7.15 6.59-10.17 4.83l-29.19-20.45c-1.67-1.38-1.79-4.48-.21-7.23m-38.41 0c1.59 2.76 1.47 5.85-.21 7.23l-29.19 20.46c-3.03 1.75-7.59-.37-10.17-4.83-2.58-4.48-2.13-9.48.9-11.25l32.31-15.02c2.03-.77 4.77.67 6.37 3.42" transform="translate(-41.018 -644.396)scale(2.27879)" style="fill:#fdbb30"></path><path d="M329.268 266.596c2.956 1.838 8.869 3.436 14.622 3.436 13.822 0 20.374-7.511 20.374-16.22 0-7.75-4.474-12.464-13.823-15.98-7.191-2.796-10.307-4.714-10.307-8.869 0-3.196 2.637-6.472 8.869-6.472 5.034 0 8.789 1.519 10.787 2.557l2.317-7.91c-2.797-1.438-7.031-2.716-12.864-2.716-11.745 0-19.096 6.631-19.096 15.5 0 7.75 5.673 12.465 14.621 15.661 6.792 2.476 9.509 4.873 9.509 8.948 0 4.395-3.516 7.351-9.748 7.351-5.034 0-9.908-1.598-13.024-3.436Zm75.428-36.354h-9.828v23.49c0 1.119-.16 2.238-.559 3.037-.959 2.556-3.516 5.273-7.511 5.273-5.193 0-7.271-4.155-7.271-10.627v-21.173H369.7v22.851c0 12.704 6.472 16.939 13.503 16.939s10.866-3.995 12.544-6.712h.24l.479 5.833h8.549c-.159-3.196-.319-7.031-.319-11.665Zm7.624 54.731h9.827v-20.135h.16c1.998 3.117 6.072 5.194 10.946 5.194 8.869 0 17.738-6.792 17.738-20.854 0-12.145-7.431-19.815-16.379-19.815-5.913 0-10.467 2.477-13.344 6.871h-.159l-.48-5.992H412c.16 3.675.32 7.83.32 12.944Zm9.827-38.112c0-.799.16-1.678.32-2.477 1.039-4.315 4.794-7.271 8.869-7.271 6.312 0 9.668 5.593 9.668 12.465 0 7.67-3.676 12.863-9.908 12.863-4.235 0-7.67-2.876-8.709-6.871-.16-.879-.24-1.758-.24-2.717Zm68.329 5.593c.16-.879.319-2.317.319-4.155 0-8.549-4.154-18.936-16.779-18.936-12.464 0-19.016 10.147-19.016 20.934 0 11.905 7.431 19.655 20.055 19.655 5.593 0 10.227-1.039 13.583-2.477l-1.438-6.711c-3.036 1.038-6.232 1.757-10.787 1.757-6.312 0-11.745-3.036-11.985-10.067Zm-26.048-6.871c.4-3.995 2.957-9.509 9.029-9.509 6.552 0 8.15 5.913 8.07 9.509Zm31.292 23.57h9.827v-20.215c0-1.038.08-2.077.24-2.956.879-4.474 4.155-7.431 8.789-7.431 1.198 0 2.077.08 2.956.24v-9.188c-.799-.16-1.358-.24-2.317-.24-4.235 0-8.789 2.796-10.706 8.23h-.24l-.4-7.351H495.4c.24 3.435.32 7.271.32 12.544Zm52.46-8.469c-1.918.799-4.395 1.518-7.75 1.518-6.712 0-11.906-4.555-11.906-12.545-.079-7.111 4.395-12.624 11.906-12.624 3.515 0 5.832.719 7.43 1.518l1.758-7.43c-2.237-.959-5.913-1.758-9.508-1.758-13.663 0-21.653 9.029-21.653 20.694 0 12.065 7.91 19.895 20.055 19.895 4.874 0 8.949-1.039 11.026-1.997zm38.596-8.23c.16-.879.319-2.317.319-4.155 0-8.549-4.154-18.936-16.779-18.936-12.464 0-19.016 10.147-19.016 20.934 0 11.905 7.431 19.655 20.055 19.655 5.593 0 10.227-1.039 13.583-2.477l-1.438-6.711c-3.036 1.038-6.232 1.757-10.787 1.757-6.312 0-11.745-3.036-11.985-10.067Zm-26.048-6.871c.4-3.995 2.957-9.509 9.029-9.509 6.552 0 8.15 5.913 8.07 9.509Zm31.291 23.57h9.828v-22.931c0-1.119.16-2.317.48-3.116 1.038-2.957 3.755-5.753 7.67-5.753 5.353 0 7.431 4.235 7.431 9.828v21.972h9.827v-23.091c0-12.305-7.031-16.699-13.822-16.699-6.472 0-10.707 3.675-12.465 6.711h-.239l-.48-5.832H591.7c.16 3.356.319 7.111.319 11.585Zm44.194-46.182v7.271H630.7v7.351h5.513v18.297c0 5.113.959 8.709 3.116 10.946 1.838 1.997 4.794 3.196 8.47 3.196 3.036 0 5.673-.479 7.111-1.039l-.16-7.43c-1.119.319-2.077.399-3.835.399-3.755 0-5.034-2.397-5.034-7.191v-17.178h9.348v-7.351h-9.348v-9.988Zm24.906 46.182h9.828v-20.215c0-1.038.08-2.077.24-2.956.878-4.474 4.154-7.431 8.789-7.431 1.198 0 2.077.08 2.956.24v-9.188c-.799-.16-1.358-.24-2.317-.24-4.235 0-8.789 2.796-10.707 8.23h-.24l-.399-7.351H660.8c.239 3.435.319 7.271.319 12.544Zm60.056-16.699c.16-.879.32-2.317.32-4.155 0-8.549-4.155-18.936-16.779-18.936-12.465 0-19.016 10.147-19.016 20.934 0 11.905 7.43 19.655 20.055 19.655 5.593 0 10.227-1.039 13.583-2.477l-1.439-6.711c-3.036 1.038-6.232 1.757-10.786 1.757-6.312 0-11.745-3.036-11.985-10.067Zm-26.047-6.871c.399-3.995 2.956-9.509 9.029-9.509 6.551 0 8.149 5.913 8.069 9.509Z" style="stroke:#000;stroke-opacity:0;stroke-width:0;fill:#fdbb30" transform="scale(1.28182)"></path></svg>